<svg>
    <symbol id="arrow-right" viewBox="0 0 60 44" xmlns="http://www.w3.org/2000/svg">
        <g>
            <path d="M59.2012 23.7466C60.2662 22.6816 60.2662 20.9548 59.2012 19.8897L41.8448 2.53342C40.7798 1.46835 39.0532 1.46835 37.9879 2.53342C36.9229 3.5985 36.9229 5.3253 37.9879 6.39035L53.4158 21.8182L37.9879 37.2461C36.9229 38.3111 36.9229 40.0377 37.9879 41.103C39.0532 42.168 40.7798 42.168 41.8448 41.103L59.2012 23.7466ZM4.76852e-07 24.5454H57.2727V19.0909H0L4.76852e-07 24.5454Z"/>
        </g>
    </symbol>

    <symbol id="chevron-down" viewBox="0 0 60 58" xmlns="http://www.w3.org/2000/svg">
        <g>
            <path d="M15.6 21.6L30 36L44.4 21.6" stroke-linecap="round" stroke-linejoin="round"/>
        </g>
    </symbol>

    <symbol id="facebook" viewBox="0 0 60 60" xmlns="http://www.w3.org/2000/svg">
        <g>
            <path fill-rule="evenodd" clip-rule="evenodd" d="M29.9042 0.90918C35.3128 0.970898 40.1989 2.30017 44.5626 4.89699C48.8742 7.44197 52.4608 11.0505 54.9795 15.3776C57.5605 19.7676 58.8818 24.6833 58.9433 30.1248C58.79 37.5701 56.4417 43.9291 51.8984 49.2019C47.355 54.4746 41.5361 57.7366 35.5123 58.9871V38.1128H41.2073L42.4952 29.9097H33.8717V24.5369C33.8238 23.423 34.1761 22.3288 34.8647 21.4521C35.5544 20.573 36.7688 20.1109 38.508 20.0659H43.7155V12.8802C43.6408 12.8562 42.9318 12.7611 41.5885 12.595C40.0651 12.4168 38.5332 12.3216 36.9994 12.3098C33.5281 12.3258 30.7828 13.305 28.7634 15.2474C26.7439 17.1892 25.7124 19.9986 25.6686 23.6756V29.9097H19.1061V38.1128H25.6686V58.9871C18.2724 57.7366 12.4534 54.4746 7.91004 49.2019C3.36668 43.9291 1.01848 37.5701 0.865173 30.1248C0.926509 24.683 2.24774 19.7673 4.82888 15.3776C7.34756 11.0505 10.9342 7.44197 15.2459 4.89699C19.6094 2.30067 24.4955 0.971398 29.9042 0.90918V0.90918Z"/>
        </g>
    </symbol>

    <symbol id="hamburger"  viewBox="0 0 60 60" xmlns="http://www.w3.org/2000/svg">
        <g>
            <path d="M8.75 17.5C8.05965 17.5 7.5 16.9404 7.5 16.25C7.5 15.5597 8.05965 15 8.75 15H51.25C51.9403 15 52.5 15.5597 52.5 16.25C52.5 16.9404 51.9403 17.5 51.25 17.5H8.75ZM8.75 30C8.05965 30 7.5 29.4403 7.5 28.75C7.5 28.0598 8.05965 27.5 8.75 27.5H51.25C51.9403 27.5 52.5 28.0598 52.5 28.75C52.5 29.4403 51.9403 30 51.25 30H8.75ZM8.75 42.5C8.05965 42.5 7.5 41.9403 7.5 41.25C7.5 40.5597 8.05965 40 8.75 40H51.25C51.9403 40 52.5 40.5597 52.5 41.25C52.5 41.9403 51.9403 42.5 51.25 42.5H8.75Z"/>
        </g>
    </symbol>

    <symbol id="instagram" viewBox="0 0 60 60" xmlns="http://www.w3.org/2000/svg">
        <g>
            <path d="M30.5905 60.0001C30.3918 60.0001 30.1932 60.0001 29.9931 59.9992C25.2901 60.0106 20.9445 59.8911 16.7184 59.6339C12.8439 59.3981 9.30725 58.0592 6.49017 55.7621C3.77197 53.5456 1.91574 50.5486 0.973206 46.8554C0.152893 43.6401 0.109406 40.4838 0.067749 37.431C0.0375366 35.2406 0.00640869 32.645 0 30.0056C0.00640869 27.3551 0.0375366 24.7596 0.067749 22.5692C0.109406 19.5168 0.152893 16.3605 0.973206 13.1448C1.91574 9.45152 3.77197 6.45454 6.49017 4.23805C9.30725 1.94099 12.8439 0.602035 16.7189 0.366287C20.945 0.109481 25.2914 -0.0104528 30.0046 0.000991342C34.709 -0.00907946 39.0532 0.109481 43.2793 0.366287C47.1538 0.602035 50.6904 1.94099 53.5075 4.23805C56.2262 6.45454 58.082 9.45152 59.0245 13.1448C59.8448 16.3601 59.8883 19.5168 59.93 22.5692C59.9602 24.7596 59.9917 27.3551 59.9977 29.9946V30.0056C59.9917 32.645 59.9602 35.2406 59.93 37.431C59.8883 40.4833 59.8453 43.6396 59.0245 46.8554C58.082 50.5486 56.2262 53.5456 53.5075 55.7621C50.6904 58.0592 47.1538 59.3981 43.2793 59.6339C39.2322 59.8801 35.0748 60.0001 30.5905 60.0001V60.0001ZM29.9931 55.3117C34.6197 55.3226 38.8678 55.2059 42.9945 54.9551C45.9242 54.777 48.4643 53.8262 50.5453 52.1293C52.4689 50.5605 53.7936 48.3962 54.4826 45.6963C55.1655 43.0198 55.2049 40.1459 55.2429 37.3669C55.2727 35.1911 55.3038 32.6139 55.3102 30.0001C55.3038 27.3858 55.2727 24.809 55.2429 22.6333C55.2049 19.8542 55.1655 16.9804 54.4826 14.3034C53.7936 11.6035 52.4689 9.43916 50.5453 7.87041C48.4643 6.17393 45.9242 5.22316 42.9945 5.04509C38.8678 4.79378 34.6197 4.67796 30.0041 4.68803C25.3784 4.67705 21.1299 4.79378 17.0032 5.04509C14.0735 5.22316 11.5334 6.17393 9.45236 7.87041C7.52884 9.43916 6.20407 11.6035 5.51514 14.3034C4.83215 16.9804 4.79278 19.8537 4.75479 22.6333C4.72504 24.8109 4.69391 27.3894 4.6875 30.0056C4.69391 32.6102 4.72504 35.1893 4.75479 37.3669C4.79278 40.1459 4.83215 43.0198 5.51514 45.6963C6.20407 48.3962 7.52884 50.5605 9.45236 52.1293C11.5334 53.8258 14.0735 54.7765 17.0032 54.9546C21.1299 55.2059 25.3793 55.3231 29.9931 55.3117V55.3117ZM29.8814 44.6485C21.8047 44.6485 15.233 38.0773 15.233 30.0001C15.233 21.9228 21.8047 15.3516 29.8814 15.3516C37.9587 15.3516 44.5299 21.9228 44.5299 30.0001C44.5299 38.0773 37.9587 44.6485 29.8814 44.6485V44.6485ZM29.8814 20.0391C24.3892 20.0391 19.9205 24.5078 19.9205 30.0001C19.9205 35.4923 24.3892 39.961 29.8814 39.961C35.3741 39.961 39.8424 35.4923 39.8424 30.0001C39.8424 24.5078 35.3741 20.0391 29.8814 20.0391V20.0391ZM46.1705 10.6641C44.2291 10.6641 42.6549 12.2379 42.6549 14.1798C42.6549 16.1216 44.2291 17.6954 46.1705 17.6954C48.1123 17.6954 49.6861 16.1216 49.6861 14.1798C49.6861 12.2379 48.1123 10.6641 46.1705 10.6641Z"/>
        </g>
    </symbol>

    <symbol id="location" viewBox="0 0 60 60" xmlns="http://www.w3.org/2000/svg">
        <g>
            <g>
                <path d="M8.90625 21.0938C8.90625 31.5136 16.8611 42.8184 23.8802 52.5877C25.5487 54.9086 27.147 57.1315 28.5374 59.2172C28.8635 59.7064 29.4129 60 29.9999 60C30.5869 60 31.1363 59.7064 31.4624 59.2172C32.8528 57.1315 34.451 54.9084 36.1195 52.5877C43.1389 42.8184 51.0938 31.5136 51.0938 21.0938C51.0938 9.46195 41.6318 0 30 0C18.3682 0 8.90625 9.46195 8.90625 21.0938ZM40.5469 21.0938C40.5469 26.9096 35.8159 31.6406 30 31.6406C24.1841 31.6406 19.4531 26.9096 19.4531 21.0938C19.4531 15.2779 24.1841 10.5469 30 10.5469C35.8159 10.5469 40.5469 15.2779 40.5469 21.0938Z"/>
                <path d="M30 28.125C33.8833 28.125 37.0312 24.977 37.0312 21.0938C37.0312 17.2105 33.8833 14.0625 30 14.0625C26.1167 14.0625 22.9688 17.2105 22.9688 21.0938C22.9688 24.977 26.1167 28.125 30 28.125Z"/>
            </g>
        </g>
    </symbol>

    <symbol id="pinterest" viewBox="0 0 60 60" xmlns="http://www.w3.org/2000/svg">
        <g>
            <path  d="M54 30.7199C54.36 16.9799 43.32 5.81995 29.64 5.99995C16.5 6.17995 5.88 17.0399 6 30.1799C6.06 39.5999 11.58 47.6999 19.5 51.5999C19.98 51.8399 20.52 51.4799 20.46 50.9399C20.4 49.3799 20.46 47.7599 20.76 46.4399C21.06 45.1199 22.26 40.0799 23.04 36.7799C23.4 35.1599 23.46 33.4799 23.16 31.8599C23.04 31.3199 22.98 30.7199 22.98 29.9999C22.98 26.4599 25.02 23.8199 27.6 23.8199C29.76 23.8199 30.84 25.4399 30.84 27.4199C30.84 29.5799 29.46 32.8799 28.74 35.9399C28.14 38.4599 30 40.5599 32.52 40.5599C37.08 40.5599 40.56 35.7599 40.56 28.8599C40.56 22.7399 36.18 18.4799 29.88 18.4799C22.62 18.4799 18.36 23.9399 18.36 29.5799C18.36 31.7999 19.2 34.1399 20.28 35.3999C20.46 35.6399 20.52 35.8799 20.46 36.1199C20.28 36.8999 19.86 38.6399 19.74 38.9999C19.62 39.4799 19.38 39.5399 18.9 39.3599C15.72 37.7999 13.68 33.1199 13.68 29.3999C13.68 21.3599 19.5 13.9799 30.54 13.9799C39.36 13.9799 46.26 20.2799 46.26 28.7399C46.26 37.5599 40.74 44.5799 33 44.5799C30.96 44.5799 29.04 43.7399 27.9 42.5999C27.54 42.2399 26.94 42.4199 26.82 42.8999C26.4 44.3999 25.8 46.9199 25.56 47.6999C25.2 49.1399 24.42 50.8199 23.58 52.3199C23.34 52.6799 23.58 53.2199 24 53.2799C25.98 53.7599 28.02 54.0599 30.12 53.9999C42.84 53.8799 53.64 43.3199 54 30.7199Z"/>
        </g>
    </symbol>

    <symbol id="slide-left" viewBox="0 0 60 55" xmlns="http://www.w3.org/2000/svg">
        <g>
            <path d="M34.5455 18.1818L25.4545 27.2727L34.5455 36.3636"  stroke-linecap="round" stroke-linejoin="round"/>
        </g>
    </symbol>

    <symbol id="slide-right"  viewBox="0 0 60 55" xmlns="http://www.w3.org/2000/svg">
        <g>
            <path d="M25.4545 36.3636L34.5454 27.2727L25.4545 18.1818" stroke-linecap="round" stroke-linejoin="round"/>
        </g>
    </symbol>

    <symbol id="star" viewBox="0 0 60 60" xmlns="http://www.w3.org/2000/svg">
        <g>
            <path d="M30 5.00012L37.725 20.6501L55 23.1751L42.5 35.3502L45.45 52.5502L30 44.4252L14.55 52.5502L17.5 35.3502L5 23.1751L22.275 20.6501L30 5.00012Z"/>
        </g>
    </symbol>

    <symbol id="twitter" viewBox="0 0 60 60" xmlns="http://www.w3.org/2000/svg">
        <g>
            <path d="M53.94 15.12C52.14 15.9 50.28 16.44 48.3 16.68C50.34 15.48 51.9 13.56 52.62 11.22C50.7 12.36 48.6 13.14 46.38 13.62C44.58 11.7 42 10.5 39.18 10.5C33.72 10.5 29.34 14.94 29.34 20.34C29.34 21.12 29.4 21.84 29.58 22.56C21.42 22.2 14.22 18.24 9.36 12.3C5.88 18.54 9.78 23.7 12.36 25.44C10.8 25.44 9.24 24.96 7.92 24.24C7.92 29.1 11.34 33.12 15.78 34.02C14.82 34.32 12.66 34.5 11.34 34.2C12.6 38.1 16.26 40.98 20.52 41.04C17.16 43.68 12.24 45.78 5.94 45.12C10.32 47.94 15.48 49.56 21.06 49.56C39.18 49.56 49.02 34.56 49.02 21.6C49.02 21.18 49.02 20.76 48.96 20.34C51 18.84 52.68 17.1 53.94 15.12V15.12Z"/>
        </g>
    </symbol>

    <symbol id="logo" viewBox="0 0 76 86" xmlns="http://www.w3.org/2000/svg">
        <path d="M27.1023 61.8743L38 72.6173L48.8977 61.8743L38 51.1313L27.1023 61.8743ZM38 9.73711V9.75326C34.8809 9.75326 31.7618 10.9272 29.3857 13.2696L29.3747 13.2589C27.004 15.6013 25.8132 18.6815 25.8132 21.7617C25.8132 24.8473 26.9985 27.9221 29.3638 30.2538H29.3802L38 38.7459L46.6143 30.2538H46.6307C49.0124 27.906 50.2032 24.8312 50.2032 21.7617H50.1868C50.1868 18.6869 48.996 15.6121 46.6198 13.2696C44.2272 10.9164 41.1082 9.73711 38 9.73711ZM55.1795 68.067L41.1409 81.9064L38 85.0027L34.8591 81.9064L20.8205 68.067L6.78186 81.9064L0.5 75.7136L31.7236 44.9386L23.1092 36.4465L23.1202 36.4357C18.996 32.3755 16.9366 27.0605 16.9366 21.7617C16.9366 16.4575 18.996 11.148 23.1092 7.09309V7.08232C27.2225 3.02744 32.614 0.997314 38 0.997314V1.01347C43.3969 1.01347 48.7939 3.03821 52.8962 7.08232C57.0095 11.1372 59.0634 16.4522 59.0634 21.7671H59.047C59.047 27.0767 56.9931 32.3863 52.8853 36.4411L52.8962 36.4519L44.2819 44.9386L75.5 75.7136L69.2181 81.9064L55.1795 68.067Z"/>
    </symbol>


    <symbol id="logo-text" viewBox="0 0 256 48" xmlns="http://www.w3.org/2000/svg">
        <g>
            <path d="M18.8227 9.36463V46.0977H11.9033V9.36463H0.593964V3.48501H30.074V9.36463H18.8227Z"/>
            <path d="M36.2665 22.8994C36.9449 21.0753 37.8364 19.7267 38.9412 18.8535C40.0654 17.9803 41.4512 17.5437 43.0986 17.5437C43.9902 17.5437 44.8624 17.6504 45.7152 17.8639C46.5874 18.0773 47.4402 18.3878 48.2736 18.7953L46.0059 24.151C45.4632 23.7629 44.8721 23.4815 44.2325 23.3069C43.6123 23.1128 42.9145 23.0158 42.1392 23.0158C40.046 23.0158 38.5439 23.8599 37.6329 25.5481C36.722 27.2169 36.2665 30.0306 36.2665 33.9891V46.0977H29.9577V18.446H36.2665V22.8994Z" />
            <path d="M77.8118 46.0977H71.5029V42.5175C70.3788 44.1087 69.0608 45.2924 67.549 46.0685C66.0566 46.8447 64.3413 47.2328 62.4031 47.2328C58.5073 47.2328 55.4353 45.9036 53.187 43.2452C50.958 40.5673 49.8436 36.9095 49.8436 32.2718C49.8436 27.867 50.9871 24.3159 53.2742 21.6187C55.5613 18.902 58.5461 17.5437 62.2287 17.5437C64.477 17.5437 66.3958 18.0191 67.9851 18.9699C69.5938 19.9014 70.7664 21.25 71.5029 23.0158V18.5042H77.8118V46.0977ZM71.6774 32.2136C71.6774 29.3611 71.0087 27.1393 69.6713 25.5481C68.3534 23.9569 66.5024 23.1613 64.1184 23.1613C61.7344 23.1613 59.8544 23.986 58.4782 25.6354C57.1215 27.2654 56.4431 29.5358 56.4431 32.4465C56.4431 35.3766 57.1021 37.6372 58.4201 39.2284C59.7381 40.8196 61.5987 41.6152 64.0021 41.6152C66.2698 41.6152 68.1111 40.7517 69.526 39.0247C70.9602 37.2976 71.6774 35.0273 71.6774 32.2136Z"/>
            <path d="M96.215 47.7568L81.7657 18.5042H88.656L94.6741 32.3883C94.8679 32.8152 95.1005 33.4555 95.3718 34.3093C95.6432 35.1631 95.9242 36.1819 96.215 37.3656C96.4088 36.5312 96.6317 35.7065 96.8836 34.8915C97.155 34.0571 97.4748 33.2227 97.843 32.3883L103.832 18.5042H110.693L96.215 47.7568Z"/>
            <path d="M141.22 33.2324H119.183C119.338 35.8132 120.103 37.8313 121.479 39.2866C122.855 40.7226 124.687 41.4405 126.974 41.4405C129.009 41.4405 130.705 41.0136 132.062 40.1598C133.419 39.306 134.601 37.9283 135.609 36.0266L140.929 38.9955C139.379 41.7704 137.46 43.837 135.173 45.1953C132.886 46.5537 130.201 47.2328 127.12 47.2328C122.7 47.2328 119.183 45.8842 116.566 43.187C113.949 40.4897 112.641 36.8901 112.641 32.3883C112.641 28.061 113.988 24.51 116.682 21.7351C119.396 18.9408 122.875 17.5437 127.12 17.5437C131.558 17.5437 135.018 18.8147 137.499 21.3567C139.979 23.8987 141.22 27.4595 141.22 32.039V33.2324ZM134.678 28.9827C134.427 27.0035 133.671 25.4996 132.411 24.4712C131.151 23.4233 129.426 22.8994 127.236 22.8994C125.162 22.8994 123.495 23.4039 122.235 24.4129C120.975 25.422 120.094 26.9453 119.59 28.9827H134.678Z"/>
            <path d="M148.11 46.0977V0.981812H154.419V46.0977H148.11Z"/>
            <path d="M163.751 46.0977V0.981812H170.06V46.0977H163.751Z"/>
            <path d="M178.55 6.57035C178.55 5.5031 178.937 4.58138 179.713 3.80519C180.507 3.029 181.447 2.64091 182.533 2.64091C183.657 2.64091 184.587 3.0193 185.324 3.77608C186.08 4.51346 186.457 5.44488 186.457 6.57035C186.457 7.69582 186.08 8.64665 185.324 9.42284C184.568 10.1796 183.637 10.558 182.533 10.558C181.447 10.558 180.507 10.1699 179.713 9.39373C178.937 8.59814 178.55 7.65702 178.55 6.57035ZM179.393 46.0977V18.5042H185.702V46.0977H179.393Z" />
            <path d="M220.676 46.0977H214.368V42.5175C213.243 44.1087 211.925 45.2924 210.414 46.0685C208.921 46.8447 207.206 47.2328 205.268 47.2328C201.372 47.2328 198.3 45.9036 196.052 43.2452C193.823 40.5673 192.708 36.9095 192.708 32.2718C192.708 27.867 193.852 24.3159 196.139 21.6187C198.426 18.902 201.411 17.5437 205.093 17.5437C207.342 17.5437 209.26 18.0191 210.85 18.9699C212.458 19.9014 213.631 21.25 214.368 23.0158V18.5042H220.676V46.0977ZM214.542 32.2136C214.542 29.3611 213.873 27.1393 212.536 25.5481C211.218 23.9569 209.367 23.1613 206.983 23.1613C204.599 23.1613 202.719 23.986 201.343 25.6354C199.986 27.2654 199.308 29.5358 199.308 32.4465C199.308 35.3766 199.967 37.6372 201.285 39.2284C202.603 40.8196 204.463 41.6152 206.867 41.6152C209.134 41.6152 210.976 40.7517 212.391 39.0247C213.825 37.2976 214.542 35.0273 214.542 32.2136Z"/>
            <path d="M229.398 46.0977V18.5042H235.329V23.0158C236.589 21.1141 238.072 19.7267 239.777 18.8535C241.483 17.9803 243.557 17.5437 245.999 17.5437C248.053 17.5437 249.798 17.8736 251.232 18.5333C252.686 19.1737 253.82 20.1342 254.634 21.4149C255.118 22.1717 255.467 23.0546 255.68 24.0637C255.893 25.0727 256 26.8385 256 29.3611V46.0977H249.633V31.9225C249.633 28.2939 249.187 25.8877 248.296 24.704C247.423 23.5009 245.863 22.8994 243.615 22.8994C242.142 22.8994 240.824 23.171 239.661 23.7144C238.517 24.2577 237.616 25.0242 236.957 26.0138C236.492 26.6736 236.163 27.5274 235.969 28.5752C235.794 29.6037 235.707 31.2531 235.707 33.5234V46.0977H229.398Z" />
        </g>
    </symbol>

    <symbol id="cross" viewBox="0 0 60 58" xmlns="http://www.w3.org/2000/svg">
        <g>
            <path d="M24 8L8 24"  stroke-linecap="round" stroke-linejoin="round"/>
            <path d="M8 8L24 24" stroke-linecap="round" stroke-linejoin="round"/>
        </g>
    </symbol>
</svg>